<svg xmlns="http://www.w3.org/2000/svg" xmlns:xlink="http://www.w3.org/1999/xlink" preserveAspectRatio="xMidYMid" width="8" height="12" viewBox="0 0 8 12">
  <defs>
    <style>

      .cls-2 {
        fill: #325A46;
      }
    </style>
  </defs>
  <path d="M7.932,4.675 C7.922,4.732 7.918,4.790 7.906,4.846 C7.673,6.326 6.857,9.476 4.000,12.000 C1.286,9.311 0.413,6.433 0.133,4.973 C0.090,4.800 0.065,4.622 0.044,4.441 C0.007,4.160 -0.000,4.000 -0.000,4.000 C-0.000,1.791 1.791,-0.000 4.000,-0.000 C6.209,-0.000 8.000,1.791 8.000,4.000 C8.000,4.000 7.991,4.254 7.932,4.675 ZM4.000,2.000 C2.895,2.000 2.000,2.895 2.000,4.000 C2.000,5.105 2.895,6.000 4.000,6.000 C5.105,6.000 6.000,5.105 6.000,4.000 C6.000,2.895 5.105,2.000 4.000,2.000 Z" id="path-1" class="cls-2" fill-rule="evenodd"/>
</svg>