<?xml version="1.0" encoding="utf-8"?>
<!-- Generator: Adobe Illustrator 19.0.1, SVG Export Plug-In . SVG Version: 6.00 Build 0)  -->
<svg version="1.1" id="Layer_1" xmlns="http://www.w3.org/2000/svg" xmlns:xlink="http://www.w3.org/1999/xlink" x="0px" y="0px"
	 width="264.3px" height="76.3px" viewBox="0 0 264.3 76.3" enable-background="new 0 0 264.3 76.3" xml:space="preserve">
<g>
	<path d="M129.3,57.5h-1.2l-1.5-2.4l-1.5,2.4h-1.2l2.2-3.2l-2.2-3.1h1.2l1.5,2.3l1.5-2.3h1.2l-2.2,3.1L129.3,57.5L129.3,57.5z
		 M195,48.7l-2.8,6.9c-0.4,1-1,2-2.4,2.1c-0.3,0-0.9,0-1.2-0.1l0-1c0.3,0.1,0.7,0.2,1,0.2c1.1,0,1.4-0.8,1.7-1.6l-3.2-6.5h1.2
		l2.5,5.2l2.1-5.2H195L195,48.7z M166.9,37.3l-2.8,7.6c-0.4,1-1,1.6-2,1.7c-0.3,0-0.6,0-0.9-0.1l0-1c0.3,0.1,0.7,0.2,0.9,0.1
		c0.5-0.1,0.8-0.5,1-1l0.4-1l-2.6-6.3h1.1l2,5l1.8-5H166.9L166.9,37.3z M153.5,71.4h-1.3l-2.2-2.8h-0.6v2.8h-1v-6.3h1v2.6h0.6
		l2.1-2.6h1.2l-2.5,3.1L153.5,71.4L153.5,71.4z M169.5,57.5h-1.3l-2.2-2.8h-0.6v2.8h-1v-6.3h1v2.6h0.6l2.1-2.6h1.2l-2.5,3.1
		L169.5,57.5L169.5,57.5z M109.5,43.5h-1.3l-2.2-2.8h-0.6v2.8h-1v-6.3h1v2.6h0.6l2.1-2.6h1.2l-2.5,3.1L109.5,43.5L109.5,43.5z
		 M155.4,40.4c0-0.9,0.6-2.1,2.1-2.1s1.8,0.9,1.8,2.2c0,1.4-0.6,2.3-2,2.3C155.9,42.8,155.4,41.7,155.4,40.4L155.4,40.4z
		 M155.4,38.4c0.1-1,0.6-1.8,1.2-2.3c0.6-0.4,1.4-0.5,2.1-0.7c0.7-0.2,1.1-0.7,1.1-1.4h-1c0,0.2,0,0.5-0.6,0.6
		c-0.8,0.2-1.5,0.3-2.2,0.7c-1.6,1-1.8,2.9-1.8,4.6c0,1.9,0.9,3.6,3,3.6c1.9,0,3-1.2,3-3.2c0-2-0.9-3.1-2.8-3.1
		C156.8,37.4,155.8,37.8,155.4,38.4L155.4,38.4z M83.7,39.1c0-2.1,0.9-3.5,3.1-3.5c0.8,0,1.6,0.1,2.2,0.3l0-1.1
		c-0.7-0.2-1.5-0.3-2.2-0.3c-2.8,0-4.3,1.7-4.3,4.5c0,2.8,1.5,4.5,4.3,4.5c0.8,0,1.6-0.1,2.2-0.3l0-1.1c-0.6,0.2-1.4,0.3-2.2,0.3
		C84.6,42.6,83.7,41.3,83.7,39.1L83.7,39.1z M179.3,49.2c0.3,0.4,0.8,0.6,1.2,0.6c0.5,0,0.9-0.2,1.2-0.6l0.6,0.5
		c-0.4,0.6-1.1,0.9-1.8,0.9c-0.7,0-1.4-0.3-1.8-0.9L179.3,49.2L179.3,49.2z M179,57.5h-1v-6.3h0.9v5c0.2-0.4,0.4-0.8,0.7-1.1
		l2.6-3.9h1v6.3h-0.9v-5c-0.2,0.4-0.4,0.8-0.7,1.1L179,57.5L179,57.5z M171.7,57.5h-1v-6.3h0.9v5c0.2-0.4,0.4-0.8,0.7-1.1l2.6-3.9h1
		v6.3H175v-5c-0.2,0.4-0.4,0.8-0.7,1.1L171.7,57.5L171.7,57.5z M138.7,57.5h-1v-6.3h0.9v5c0.2-0.4,0.4-0.8,0.7-1.1l2.6-3.9h1v6.3
		h-0.9v-5c-0.2,0.4-0.4,0.8-0.7,1.1L138.7,57.5L138.7,57.5z M237.4,57.5h-1v-6.3h0.9v5c0.2-0.4,0.4-0.8,0.7-1.1l2.6-3.9h1v6.3h-0.9
		v-5c-0.2,0.4-0.4,0.8-0.7,1.1L237.4,57.5L237.4,57.5z M230.3,54.3c0-2.3,1.3-3.3,3.2-3.3c0.4,0,1.1,0.1,1.5,0.2l-0.1,0.9
		c-0.5-0.2-1.1-0.2-1.6-0.2c-1.2,0-2,0.7-2,2.4c0,1.7,0.9,2.4,2,2.4c0.5,0,1.1,0,1.6-0.2l0.1,0.9c-0.5,0.1-1.1,0.2-1.5,0.2
		C231.7,57.7,230.3,56.6,230.3,54.3L230.3,54.3z M158.3,54.3c0-2.3,1.3-3.3,3.2-3.3c0.4,0,1.1,0.1,1.5,0.2l-0.1,0.9
		c-0.5-0.2-1.1-0.2-1.6-0.2c-1.2,0-2,0.7-2,2.4c0,1.7,0.9,2.4,2,2.4c0.5,0,1.1,0,1.6-0.2l0.1,0.9c-0.5,0.1-1.1,0.2-1.5,0.2
		C159.6,57.7,158.3,56.6,158.3,54.3L158.3,54.3z M179.6,40.4c0-2.3,1.3-3.3,3.2-3.3c0.4,0,1.1,0.1,1.5,0.2l-0.1,0.9
		c-0.5-0.2-1.1-0.2-1.6-0.2c-1.2,0-2,0.7-2,2.4c0,1.7,0.9,2.4,2,2.4c0.5,0,1.1,0,1.6-0.2l0.1,0.9c-0.5,0.1-1.1,0.2-1.5,0.2
		C181,43.7,179.6,42.7,179.6,40.4L179.6,40.4z M139.2,71.4h-1V66h-1.8c-0.2,2-0.4,3.5-0.8,4.3c-0.4,0.8-0.9,1.2-2,1.1v-0.9
		c0.5,0.1,0.9-0.1,1.2-0.7c0.4-0.8,0.6-2.4,0.7-4.7h3.7V71.4L139.2,71.4z M92.6,54.3c0-1.4,0.5-2.4,1.9-2.4c1.5,0,1.9,1,1.9,2.4
		s-0.5,2.4-1.9,2.4C93,56.7,92.6,55.7,92.6,54.3L92.6,54.3z M97.5,54.3c0-2-1-3.3-3-3.3c-2,0-3,1.3-3,3.3c0,2,1,3.3,3,3.3
		C96.5,57.6,97.5,56.3,97.5,54.3L97.5,54.3z M166.7,68.3c0-1.4,0.5-2.4,1.9-2.4c1.5,0,1.9,1,1.9,2.4c0,1.4-0.5,2.4-1.9,2.4
		C167.2,70.7,166.7,69.7,166.7,68.3L166.7,68.3z M171.6,68.3c0-2-1-3.3-3-3.3c-2,0-3,1.3-3,3.3c0,2,1,3.3,3,3.3
		C170.6,71.6,171.6,70.3,171.6,68.3L171.6,68.3z M155,68.3c0-1.4,0.5-2.4,1.9-2.4c1.5,0,1.9,1,1.9,2.4c0,1.4-0.5,2.4-1.9,2.4
		C155.5,70.7,155,69.7,155,68.3L155,68.3z M159.9,68.3c0-2-1-3.3-3-3.3c-2,0-3,1.3-3,3.3c0,2,1,3.3,3,3.3
		C158.9,71.6,159.9,70.3,159.9,68.3L159.9,68.3z M102.3,43.5h-1v-2.9h-3.2v2.9h-1v-6.3h1v2.6h3.2v-2.6h1V43.5L102.3,43.5z
		 M114.6,38.1h-1.9v5.4h-1v-5.4h-1.9v-0.9h4.8V38.1L114.6,38.1z M118.3,40.8h-3.4v-0.9h3.4V40.8L118.3,40.8z M127.1,43.5h-1v-7.9
		h-4.6v7.9h-1v-8.8h6.7V43.5L127.1,43.5z M139.7,38.1h-1.9v5.4h-1v-5.4H135v-0.9h4.8V38.1L139.7,38.1z M179.2,38.1h-2.8v5.4h-1v-6.3
		h3.8V38.1L179.2,38.1z M190.8,43.5h-1.3l-2.2-2.8h-0.6v2.8h-1v-6.3h1v2.6h0.6l2.1-2.6h1.2l-2.5,3.1L190.8,43.5L190.8,43.5z
		 M89.7,57.5h-1v-7.9H84v7.9h-1v-8.8h6.7V57.5L89.7,57.5z M103.8,57.5h-1v-5.4h-1.8c-0.2,2-0.4,3.5-0.8,4.3c-0.4,0.8-0.9,1.2-2,1.1
		v-0.9c0.5,0.1,0.9-0.1,1.2-0.7c0.4-0.9,0.6-2.4,0.7-4.7h3.7V57.5L103.8,57.5z M117.1,52.1h-1.9v5.4h-1v-5.4h-1.9v-0.9h4.8V52.1
		L117.1,52.1z M135.7,57.5h-1v-2.9h-3.2v2.9h-1v-6.3h1v2.6h3.2v-2.6h1V57.5L135.7,57.5z M149.9,57.5h-1V55c-0.5,0.2-1.2,0.3-1.8,0.3
		c-1.1,0-2.1-0.6-2.1-2.2v-1.9h1v1.9c0,1.1,0.6,1.4,1.4,1.4c0.5,0,1.2-0.1,1.5-0.3v-3h1V57.5L149.9,57.5z M200.7,57.5h-1v-2.9h-3.2
		v2.9h-1v-6.3h1v2.6h3.2v-2.6h1V57.5L200.7,57.5z M210.1,57.5v-6.3h2.7c1,0,1.9,0.5,1.9,1.5c0,0.8-0.4,1.3-1.1,1.5
		c0.9,0.1,1.3,0.6,1.3,1.5c0,1.1-1,1.8-2,1.8H210.1L210.1,57.5z M211.1,52.1v1.8h1.5c0.8,0,1.2-0.3,1.2-0.9c0-0.5-0.3-0.8-1-0.8
		H211.1L211.1,52.1z M211.1,54.7v1.9h1.7c0.8,0,1.2-0.3,1.2-1c0-0.6-0.4-1-1.3-1H211.1L211.1,54.7z M247.7,52.1h-1.9v5.4h-1v-5.4
		h-1.9v-0.9h4.8V52.1L247.7,52.1z M259.2,52.1h-1.9v5.4h-1v-5.4h-1.9v-0.9h4.8V52.1L259.2,52.1z M89.7,71.4h-1v-7.9H84v7.9h-1v-8.8
		h6.7V71.4L89.7,71.4z M102.4,66h-1.9v5.4h-1V66h-1.9v-0.9h4.8V66L102.4,66z M120.5,71.4v-8.8h3.1c1.5,0,2.4,0.8,2.4,2.3
		c0,0.9-0.5,1.5-1.2,1.8v0c1,0.2,1.6,1.2,1.6,2.1c0,1.6-1.2,2.5-2.8,2.5H120.5L120.5,71.4z M121.6,63.6v2.8h1.7c1,0,1.7-0.5,1.7-1.6
		c0-0.8-0.5-1.3-1.6-1.3H121.6L121.6,63.6z M121.6,67.3v3.2h2c1,0,1.8-0.5,1.8-1.6c0-1-0.6-1.6-2-1.6H121.6L121.6,67.3z M165.3,66
		h-2.5v5.4h-1v-6.3h3.5V66L165.3,66z M134.3,40.7h-4.6c0,1.6,0.9,2.1,2.1,2.1c0.7,0,1.4-0.2,2-0.5l0,1c-0.6,0.3-1.5,0.4-2.1,0.4
		c-1.7,0-3.1-1.1-3.1-3.3c0-1.8,1-3.3,2.9-3.3C133.7,37.1,134.4,38.5,134.3,40.7L134.3,40.7z M133.3,39.9c0-1.2-0.7-1.9-1.7-1.9
		c-1.2,0-1.8,0.8-1.9,1.9H133.3L133.3,39.9z M145.9,40.7h-4.6c0,1.6,0.9,2.1,2.1,2.1c0.7,0,1.4-0.2,2-0.5l0,1
		c-0.6,0.3-1.5,0.4-2.1,0.4c-1.7,0-3.1-1.1-3.1-3.3c0-1.8,1-3.3,2.9-3.3C145.2,37.1,145.9,38.5,145.9,40.7L145.9,40.7z M144.8,39.9
		c0-1.2-0.7-1.9-1.7-1.9c-1.2,0-1.8,0.8-1.9,1.9H144.8L144.8,39.9z M253.8,54.7h-4.6c0,1.6,0.9,2.1,2.1,2.1c0.7,0,1.4-0.2,2-0.5l0,1
		c-0.6,0.3-1.5,0.4-2.1,0.4c-1.7,0-3.1-1.1-3.1-3.3c0-1.8,1-3.3,2.9-3.3C253.1,51,253.8,52.4,253.8,54.7L253.8,54.7z M252.8,53.8
		c0-1.2-0.7-1.9-1.7-1.9c-1.2,0-1.8,0.8-1.9,1.9H252.8L252.8,53.8z M221.9,54.7h-4.6c0,1.6,0.9,2.1,2.1,2.1c0.7,0,1.4-0.2,2-0.5l0,1
		c-0.6,0.3-1.5,0.4-2.1,0.4c-1.7,0-3.1-1.1-3.1-3.3c0-1.8,1-3.3,2.9-3.3C221.2,51,222,52.4,221.9,54.7L221.9,54.7z M220.9,53.8
		c0-1.2-0.7-1.9-1.7-1.9c-1.2,0-1.8,0.8-1.9,1.9H220.9L220.9,53.8z M157.3,54.7h-4.6c0,1.6,0.9,2.1,2.1,2.1c0.7,0,1.4-0.2,2-0.5l0,1
		c-0.6,0.3-1.5,0.4-2.1,0.4c-1.7,0-3.1-1.1-3.1-3.3c0-1.8,1-3.3,2.9-3.3C156.6,51,157.3,52.4,157.3,54.7L157.3,54.7z M156.2,53.8
		c0-1.2-0.7-1.9-1.7-1.9c-1.2,0-1.8,0.8-1.9,1.9H156.2L156.2,53.8z M123.2,54.7h-4.6c0,1.6,0.9,2.1,2.1,2.1c0.7,0,1.4-0.2,2-0.5l0,1
		c-0.6,0.3-1.5,0.4-2.1,0.4c-1.7,0-3.1-1.1-3.1-3.3c0-1.8,1-3.3,2.9-3.3C122.5,51,123.3,52.4,123.2,54.7L123.2,54.7z M122.2,53.8
		c0-1.2-0.7-1.9-1.7-1.9c-1.2,0-1.8,0.8-1.9,1.9H122.2L122.2,53.8z M97,68.6h-4.6c0,1.6,0.9,2.1,2.1,2.1c0.7,0,1.4-0.2,2-0.5l0,1
		c-0.6,0.3-1.5,0.4-2.1,0.4c-1.7,0-3.1-1.1-3.1-3.3c0-1.8,1-3.3,2.9-3.3C96.3,65,97,66.4,97,68.6L97,68.6z M95.9,67.8
		c0-1.2-0.7-1.9-1.7-1.9c-1.2,0-1.8,0.8-1.9,1.9H95.9L95.9,67.8z M133.1,68.6h-4.6c0,1.6,0.9,2.1,2.1,2.1c0.7,0,1.3-0.2,1.9-0.5l0,1
		c-0.6,0.3-1.4,0.4-2,0.4c-1.7,0-3.1-1.1-3.1-3.3c0-1.8,1-3.3,2.9-3.3C132.4,65,133.2,66.4,133.1,68.6L133.1,68.6z M132.1,67.8
		c0-1.2-0.7-1.9-1.7-1.9c-1.2,0-1.8,0.8-1.9,1.9H132.1L132.1,67.8z M203.8,57.5h-1v-6.3h0.9v5c0.2-0.4,0.4-0.7,0.6-1l2.7-3.9h1v6.3
		h-0.9v-5c-0.2,0.4-0.4,0.7-0.6,1L203.8,57.5L203.8,57.5z M200.7,35.2c0.3,0.4,0.8,0.6,1.2,0.6c0.5,0,0.9-0.2,1.2-0.6l0.6,0.5
		c-0.4,0.6-1.1,0.9-1.8,0.9c-0.7,0-1.4-0.3-1.8-0.9L200.7,35.2L200.7,35.2z M200.3,43.5h-1v-6.3h0.9v5c0.2-0.4,0.4-0.8,0.7-1.1
		l2.6-3.9h1v6.3h-0.9v-5c-0.2,0.4-0.4,0.8-0.7,1.1L200.3,43.5L200.3,43.5z M193,43.5h-1v-6.3h0.9v5c0.2-0.4,0.4-0.8,0.7-1.1l2.6-3.9
		h1v6.3h-0.9v-5c-0.2,0.4-0.4,0.8-0.7,1.1L193,43.5L193,43.5z M106.9,57.5h-1v-6.3h0.9v5c0.2-0.4,0.4-0.8,0.7-1.1l2.6-3.9h1v6.3
		h-0.9v-5c-0.2,0.4-0.4,0.8-0.7,1.1L106.9,57.5L106.9,57.5z M142.1,71.4h-1v-6.3h0.9v5c0.2-0.4,0.4-0.8,0.7-1.1l2.6-3.9h1v6.3h-0.9
		v-5c-0.2,0.4-0.4,0.8-0.7,1.1L142.1,71.4L142.1,71.4z M104.3,70.7v3.6h-1v-9.2h0.9l0.1,0.8c0.6-0.7,1.5-0.9,2.2-0.9
		c1.9,0.1,2.6,1.6,2.5,3.3c-0.1,1.7-0.9,3.3-2.9,3.3C105.1,71.6,104.6,71,104.3,70.7L104.3,70.7z M104.3,68.4c0,1.2,0.4,2.4,1.8,2.4
		c1.4,0,1.9-1.2,1.9-2.4c0-1.2-0.4-2.5-1.8-2.5C104.8,65.8,104.3,67.1,104.3,68.4L104.3,68.4z M224.4,56.8v3.6h-1v-9.2h0.9l0.1,0.8
		c0.6-0.7,1.5-0.9,2.2-0.9c1.9,0.1,2.6,1.6,2.5,3.3c-0.1,1.7-0.9,3.3-2.9,3.3C225.1,57.6,224.6,57.1,224.4,56.8L224.4,56.8z
		 M224.3,54.4c0,1.2,0.4,2.4,1.8,2.4c1.4,0,1.9-1.2,1.9-2.4c0-1.2-0.4-2.5-1.8-2.5C224.8,51.9,224.3,53.1,224.3,54.4L224.3,54.4z
		 M169.1,42.8v3.6h-1v-9.2h0.9l0.1,0.8c0.6-0.7,1.5-0.9,2.2-0.9c1.9,0.1,2.6,1.6,2.5,3.3c-0.1,1.7-0.9,3.3-2.9,3.3
		C169.9,43.7,169.3,43.1,169.1,42.8L169.1,42.8z M169.1,40.5c0,1.2,0.4,2.4,1.8,2.4c1.4,0,1.9-1.2,1.9-2.4c0-1.2-0.4-2.5-1.8-2.5
		C169.5,38,169.1,39.2,169.1,40.5L169.1,40.5z M148.3,42.8v3.6h-1v-9.2h0.9l0.1,0.8c0.6-0.7,1.5-0.9,2.2-0.9
		c1.9,0.1,2.6,1.6,2.5,3.3c-0.1,1.7-0.9,3.3-2.9,3.3C149.1,43.7,148.6,43.1,148.3,42.8L148.3,42.8z M148.3,40.5
		c0,1.2,0.4,2.4,1.8,2.4c1.4,0,1.9-1.2,2-2.4c0-1.2-0.4-2.5-1.8-2.5C148.7,38,148.3,39.2,148.3,40.5L148.3,40.5z M113.9,68.4v0.5
		c0,1-0.7,1.8-1.7,1.8c-0.6,0-1.2-0.3-1.2-1C110.9,68.2,112.3,68.3,113.9,68.4L113.9,68.4z M110.4,65.3l0,1c0.5-0.2,1.3-0.4,2-0.4
		c0.8,0,1.4,0.3,1.4,1.4v0.3c-2.3-0.2-4,0-4,2.1c0,1.2,0.9,1.9,2,1.9c0.9,0,1.5-0.4,2-0.9l0.1,0.7h0.8l0-4.1c0-1.7-1.1-2.2-2.4-2.3
		C111.9,65,110.9,65.1,110.4,65.3L110.4,65.3z M94.2,40.5V41c0,1-0.7,1.8-1.7,1.8c-0.6,0-1.2-0.3-1.2-1
		C91.2,40.3,92.7,40.4,94.2,40.5L94.2,40.5z M90.7,37.4l0,1c0.5-0.2,1.3-0.4,2-0.4c0.8,0,1.4,0.3,1.4,1.4v0.3c-2.3-0.2-4,0-4,2.1
		c0,1.2,0.9,1.9,2,1.9c0.9,0,1.5-0.4,2-0.9l0.1,0.7h0.8l0-4.1c0-1.7-1.1-2.2-2.4-2.3C92.2,37.1,91.2,37.2,90.7,37.4z"/>
	<path fill-rule="evenodd" clip-rule="evenodd" fill="#0DB04B" d="M0.1,72.2h72.2V0H0.1V72.2L0.1,72.2z M53.4,24v26.8h10v8.6H43.7
		V24.4l-12.7,0v20.9c0,10.5-5.9,15.7-13.5,15.7c-3.7,0-7.5-0.8-11.3-2.9l3.2-8.3c2.5,1.3,4.7,1.9,7.1,1.8c2.8-0.2,4.9-1.9,4.9-6.2
		V25.7c-3.2,1.2-5.4,3.4-8.2,6.9l-6.8-6.3c6-7.6,11.7-11.1,25-11.1h16.5c4.6,0,8.6-0.8,12.8-5l5.3,6.3C62.9,21.4,58.1,23.2,53.4,24z
		"/>
	<path d="M106.9,17.8c0-7.2,3-13.4,11.7-13.4c8.7,0,11.7,6.2,11.7,13.4c0,7.3-3,13.4-11.7,13.4C109.8,31.2,106.9,25,106.9,17.8
		L106.9,17.8z M112.3,17.8c0,4.2,0.9,8.3,6.2,8.3c5.4,0,6.2-4,6.2-8.3c0-4.2-0.9-8.3-6.2-8.3C113.2,9.5,112.3,13.5,112.3,17.8
		L112.3,17.8z M237.7,5l4.8,8l4.8-8h6.5L246,17.2l8.4,13.3h-6.5l-5.4-9l-5.4,9h-6.5l8.4-13.3L231.3,5H237.7L237.7,5z M215.3,15.1
		h10.1v5h-10.1v5.4h11.9v5.2h-17.4V5h17.4v5.2h-11.9V15.1L215.3,15.1z M193.3,30.6V10.1h-7.1V5h19.6v5.2h-7.1v20.4H193.3L193.3,30.6
		z M166.7,30.6h-5.2V5h5.5v15.8L177.1,5h5.2v25.6h-5.5V14.8L166.7,30.6L166.7,30.6z M131.9,25.5c2.3,0.1,3.8-0.9,4.3-3
		c1.5-5.5,1.7-11.8,2.4-17.6h16.5v25.6h-5.5V10.1h-6.2c-0.3,3.6-1,9.8-2,13.7c-1.2,4.4-4.8,7.1-9.6,6.9V25.5L131.9,25.5z M83,30.6V5
		h20v25.6h-5.5V10.1h-9.1v20.4H83z"/>
</g>
</svg>
